# xmcd
#
# Track frame offsets:
#   150
#   12077
#   39502
#   74379
#   107777
#   123556
#   137129
#   174181
#   200578
#
# Disc length: 3141 seconds
#
# Revision: 0
# Processed by: cddbd v1.5.2PL0 Copyright (c) Steve Scherf et al.
# Submitted via: Click'N Design 3D 5.1
#
DISCID=7a0c4309
DTITLE=BOBBY'S CUTS - VARIOUS ARTISTS
DYEAR=2007
DGENRE=Blues
TTITLE0=SHOT GUN
TTITLE1=THE WINDMILL OF YOUR MIND
TTITLE2=SOME VELVET MORNING
TTITLE3=YOU KEEP ME HANGING ON
TTITLE4=THE SKY CRIED
TTITLE5=SET ME FREE
TTITLE6=ELEANOR RIGBY
TTITLE7=TICKET TO RIDE
TTITLE8=SEASON OF THE WITCH
EXTD=
EXTT0=
EXTT1=
EXTT2=
EXTT3=
EXTT4=
EXTT5=
EXTT6=
EXTT7=
EXTT8=
PLAYORDER=
